<svg xmlns="http://www.w3.org/2000/svg" aria-hidden="true" style="position:absolute;width:0;height:0;overflow:hidden"><defs><symbol id="icon-Logo-4" viewBox="0 0 32 32"><path fill="#8e8f99" d="M16.471 15.829a.904.904 0 0 1-.186-.613v-.889c0-.272.062-.479.185-.621s.336-.212.637-.212c.283 0 .484.06.602.181.13.154.193.342.178.532v.209h-.506v-.212a1.026 1.026 0 0 0-.015-.207.202.202 0 0 0-.072-.123.297.297 0 0 0-.183-.048.315.315 0 0 0-.193.051.24.24 0 0 0-.084.136 1.018 1.018 0 0 0-.02.22v1.079a.548.548 0 0 0 .065.303c.025.032.06.057.101.073s.086.022.131.017a.272.272 0 0 0 .179-.049.212.212 0 0 0 .075-.131c.012-.072.017-.144.016-.216v-.219h.506v.2a.814.814 0 0 1-.175.559c-.116.132-.314.198-.605.198s-.511-.07-.636-.217zM18.577 15.838c-.128-.138-.192-.34-.192-.607v-.935c0-.264.064-.464.192-.599s.342-.203.641-.203c.297 0 .51.068.638.203s.193.335.193.599v.935c0 .264-.065.466-.195.606s-.341.209-.636.209c-.294 0-.512-.07-.641-.208zm.877-.224a.52.52 0 0 0 .061-.277v-1.144a.508.508 0 0 0-.06-.271c-.026-.033-.061-.059-.103-.075s-.088-.021-.133-.016c-.045-.005-.092 0-.134.016s-.078.042-.104.074a.5.5 0 0 0-.061.271v1.15a.52.52 0 0 0 .061.277c.029.029.066.053.107.069a.357.357 0 0 0 .367-.069v-.005zM20.658 13.522h.545l.41 1.725.419-1.725h.53l.053 2.489h-.392l-.042-1.73-.404 1.73h-.314l-.419-1.736-.039 1.736h-.396l.049-2.489zM23.226 13.522h.849c.489 0 .733.236.733.707 0 .451-.257.677-.772.676h-.289v1.106h-.524l.003-2.489zm.724 1.064a.4.4 0 0 0 .288-.079.399.399 0 0 0 .075-.281.784.784 0 0 0-.025-.226c-.007-.025-.021-.048-.039-.068s-.041-.037-.066-.05a.545.545 0 0 0-.234-.04h-.203v.744h.203zM25.563 13.522h.563l.577 2.489h-.488l-.114-.574h-.502l-.117.574h-.495l.577-2.489zm.481 1.627-.196-1.045-.196 1.045h.392zM27.169 13.522h.367l.702 1.42v-1.42h.435v2.489h-.349l-.706-1.482v1.482h-.449l.001-2.489zM29.69 15.062l-.584-1.537h.491l.356.987.334-.987h.481l-.576 1.537v.949h-.503v-.949zM17.279 17.1v.13h-.427v1.012h-.179V17.23h-.43v-.13h1.036zM18.619 18.241h-.138a.06.06 0 0 1-.039-.011.071.071 0 0 1-.023-.026l-.124-.271h-.593l-.124.271a.073.073 0 0 1-.019.031.066.066 0 0 1-.039.011h-.138l.524-1.142h.182l.53 1.137zm-.867-.424h.494l-.21-.465a.99.99 0 0 1-.039-.108 4.63 4.63 0 0 1-.02.061l-.019.048-.207.464zM19.522 18.129a.613.613 0 0 0 .257-.035c.023-.008.046-.018.07-.028v-.257h-.21c-.005 0-.01 0-.015-.002l-.013-.007-.008-.009a.023.023 0 0 1-.003-.011v-.088h.406v.438a.742.742 0 0 1-.221.093.836.836 0 0 1-.131.023 1.566 1.566 0 0 1-.153.007.786.786 0 0 1-.264-.043.643.643 0 0 1-.209-.119.55.55 0 0 1-.135-.181.574.574 0 0 1-.048-.237.524.524 0 0 1 .182-.42.606.606 0 0 1 .209-.118.887.887 0 0 1 .281-.043c.049 0 .097.003.146.01a.756.756 0 0 1 .23.074.651.651 0 0 1 .091.06l-.05.071a.048.048 0 0 1-.041.022.057.057 0 0 1-.032-.009.52.52 0 0 1-.051-.027.55.55 0 0 0-.166-.056.842.842 0 0 0-.133-.01.598.598 0 0 0-.202.032.447.447 0 0 0-.154.09.387.387 0 0 0-.097.142.532.532 0 0 0 0 .381.442.442 0 0 0 .258.234c.067.02.137.027.207.023zM21.192 18.111h.572v.13h-.747v-1.142h.179l-.004 1.012zM22.359 18.241h-.179v-1.142h.179v1.142zM23.025 17.105a.07.07 0 0 1 .027.021l.766.861a.28.28 0 0 1 0-.041v-.851h.156v1.146h-.09a.086.086 0 0 1-.039-.006.101.101 0 0 1-.028-.022l-.765-.86V18.241h-.15v-1.142h.093c.01 0 .02.002.029.005zM25.293 17.1v.126h-.635v.377h.514v.121h-.514v.39h.635v.126h-.819v-1.139h.819zM6.522 10.049l7.954 1.949v6.829l-7.954-1.948v-6.83zm-.511-.582v7.744l8.974 2.199v-7.743l-8.974-2.2z" style="fill:var(--color1, #8e8f99)"/><path fill="#8e8f99" d="m10.821 23.005-8.975-2.201v-7.743l8.975 2.2v7.744z" style="fill:var(--color1, #8e8f99)"/><path fill="#8e8f99" d="m6.16 9.961 7.851 1.925-3.339 2.882-7.852-1.925 3.34-2.881zm-.149-.494-4.165 3.594 8.975 2.2 4.164-3.594-8.974-2.2zM11.326 22.57l3.659-3.158-3.659-.898v4.056z" style="fill:var(--color1, #8e8f99)"/></symbol><symbol id="icon-Logo-3" viewBox="0 0 32 32"><path fill="#8e8f99" d="M8.244 21.038c.076.084.116.19.114.298.004.071-.01.141-.04.206s-.077.123-.136.17a.819.819 0 0 1-.512.137h-.9v-1.887h.882a.818.818 0 0 1 .488.125c.057.043.102.097.132.158s.043.128.039.195a.413.413 0 0 1-.102.289.492.492 0 0 1-.268.148c.119.02.227.077.304.161zm-1.056-.285h.377a.386.386 0 0 0 .24-.063c.028-.023.05-.052.064-.084s.02-.066.017-.101a.224.224 0 0 0-.08-.184.4.4 0 0 0-.247-.064h-.371v.495zm.653.724a.224.224 0 0 0 .089-.191c.002-.036-.005-.073-.021-.106s-.04-.063-.071-.087a.422.422 0 0 0-.256-.068h-.395v.519h.4a.429.429 0 0 0 .253-.065zM10.046 21.849l-.49-.737h-.184v.737H8.95v-1.887h.799a.85.85 0 0 1 .556.16.558.558 0 0 1 .06.781.672.672 0 0 1-.381.192l.522.754h-.459zm-.675-.995h.345c.24 0 .359-.095.359-.286a.261.261 0 0 0-.088-.212.398.398 0 0 0-.271-.076h-.349l.004.574zM12.352 21.469h-.841l-.149.38h-.442l.772-1.866h.478l.769 1.866h-.442l-.145-.38zm-.113-.285-.307-.796-.307.796h.614zM15.238 21.849h-.419l-.939-1.283v1.283h-.418v-1.887h.418l.939 1.291v-1.291h.419v1.887zM17.628 21.397a.88.88 0 0 1-.379.333 1.345 1.345 0 0 1-.589.119h-.745v-1.887h.745c.204-.005.406.035.589.116.16.073.292.187.379.329a1.01 1.01 0 0 1 0 .99zm-.479-.045c.119-.125.185-.285.185-.45s-.066-.325-.185-.45a.776.776 0 0 0-.524-.16h-.291v1.221h.291a.78.78 0 0 0 .524-.16zM12.614 9.467s5.405 1.837 5.291 4.496v4.496s-5.401-1.838-5.288-4.496l-.002-4.496zM22.72 17.406a7.935 7.935 0 0 1 3.434-1.139v-1.408c-1.42.493-2.625 1.386-3.434 2.547z" style="fill:var(--color1, #8e8f99)"/><path fill="#8e8f99" d="M22.106 17.83c.836-1.515 2.284-2.683 4.047-3.266v-4.056s-7.698 2.617-7.535 6.403v6.402s.343-.117.883-.336c0-.205 0-.411.025-.619.159-1.758 1.087-3.386 2.58-4.528z" style="fill:var(--color1, #8e8f99)"/><path fill="#8e8f99" d="M21.374 20.208c.04-.444.131-.883.269-1.311-.93.986-1.492 2.209-1.61 3.498a5.55 5.55 0 0 0-.02.369c.437-.189.946-.425 1.481-.702a5.99 5.99 0 0 1-.12-1.854zM21.68 20.231a5.74 5.74 0 0 0 .095 1.679c2.103-1.133 4.466-2.883 4.375-4.999v-.184c-1.503.151-2.908.743-4.001 1.683a5.791 5.791 0 0 0-.469 1.821z" style="fill:var(--color1, #8e8f99)"/></symbol><symbol id="icon-group" viewBox="0 0 32 32"><path fill="#8e8f99" d="M4.982 12.959h-.001c-.909 0-1.646.664-1.646 1.484v.001c0 .819.737 1.484 1.646 1.484h.001c.909 0 1.646-.664 1.646-1.484v-.001c0-.819-.737-1.484-1.646-1.484zM17.128 12.485c-.003-1.138-.505-2.229-1.398-3.034s-2.102-1.258-3.364-1.261c-1.263.002-2.473.455-3.366 1.26s-1.396 1.896-1.398 3.034v6.276s9.525-.956 9.526-6.275v-.001zM0 20.821c.002.792.352 1.551.973 2.111s1.463.876 2.341.878c.878-.002 1.72-.318 2.34-.878s.971-1.318.973-2.11v-4.367s-6.628.666-6.628 4.366zm3.314.782c-.172 0-.339-.046-.482-.132s-.254-.208-.32-.351-.083-.3-.049-.452c.033-.152.116-.291.237-.401s.276-.184.444-.214c.168-.03.343-.015.501.045s.294.16.389.288a.732.732 0 0 1 .081.735.775.775 0 0 1-.188.255c-.081.073-.176.131-.282.17s-.219.06-.333.06v-.003zM9.375 20.196v1.625H9.04v-1.625h.335zm.647.694v.261h-.739v-.261h.739zm.078-.694v.262h-.817v-.262h.817zm1.529.775v.077c0 .123-.017.234-.05.333s-.081.182-.142.251c-.061.068-.134.121-.219.157s-.177.055-.28.055c-.102 0-.195-.018-.28-.055s-.157-.089-.219-.157c-.062-.069-.11-.153-.144-.251s-.05-.209-.05-.333v-.077c0-.124.017-.235.05-.333s.081-.182.142-.251c.062-.069.135-.122.219-.158s.178-.055.28-.055c.103 0 .196.018.28.055s.158.089.219.158c.062.069.109.153.143.251s.051.208.051.333zm-.338.077v-.079c0-.086-.008-.162-.023-.228s-.039-.121-.069-.165-.068-.078-.112-.1c-.044-.023-.094-.035-.151-.035s-.107.012-.151.035c-.043.022-.08.056-.11.1s-.052.1-.068.165a.97.97 0 0 0-.023.228v.079c0 .086.008.161.023.228s.039.121.069.166a.309.309 0 0 0 .263.137c.057 0 .107-.012.151-.035s.081-.057.11-.102c.03-.045.052-.101.068-.166s.023-.142.023-.228zm1.425.348c0-.029-.004-.055-.013-.078s-.024-.045-.047-.065c-.023-.02-.055-.04-.097-.059s-.096-.039-.162-.06c-.074-.024-.144-.051-.21-.08s-.123-.064-.174-.104c-.05-.04-.089-.087-.118-.14s-.042-.114-.042-.184c0-.068.015-.129.045-.184s.071-.103.125-.143c.054-.04.117-.071.19-.093s.154-.032.242-.032c.12 0 .224.022.314.065s.159.102.208.177c.05.075.075.161.075.258h-.333c0-.048-.01-.089-.03-.125s-.049-.065-.089-.086a.315.315 0 0 0-.15-.031c-.058 0-.106.009-.145.027s-.068.041-.087.07a.176.176 0 0 0-.029.098c0 .027.007.052.02.075s.035.043.063.062.061.038.102.055c.04.017.087.034.139.05.089.027.166.057.233.09s.124.071.17.113c.045.042.08.089.103.142s.035.113.035.18c0 .071-.014.134-.041.19s-.067.103-.119.142c-.052.039-.114.068-.186.088s-.153.03-.242.03c-.08 0-.16-.01-.238-.031s-.149-.054-.213-.097a.474.474 0 0 1-.209-.403h.336c0 .051.008.093.023.128s.038.063.066.085c.029.022.063.037.103.047s.084.015.132.015c.058 0 .106-.008.143-.025s.066-.039.084-.068a.175.175 0 0 0 .028-.098zm1.289-1.2v1.625h-.334v-1.625h.334zm.5 0v.262h-1.326v-.262h1.326zm1.282 1.364v.261h-.865v-.261h.865zm-.756-1.364v1.625h-.335v-1.625h.335zm.643.662v.254h-.752v-.254h.752zm.112-.662v.262h-.864v-.262h.864zm.196 0h.606c.124 0 .231.019.32.056s.159.092.208.165.073.163.073.269c0 .087-.015.162-.045.224s-.07.113-.124.155a.633.633 0 0 1-.186.098l-.106.056h-.527l-.002-.261h.392c.059 0 .108-.01.146-.031s.068-.05.087-.087c.02-.037.03-.08.03-.129 0-.052-.01-.097-.029-.135s-.049-.067-.088-.087-.089-.03-.148-.03h-.271v1.363h-.335v-1.625zm.908 1.625-.371-.724.354-.002.375.711v.016h-.358zm1.758-.579h-.414v-.261h.414c.064 0 .116-.01.156-.031s.07-.051.088-.089a.327.327 0 0 0 0-.263c-.019-.042-.048-.075-.088-.1s-.092-.038-.156-.038h-.298v1.363h-.335v-1.625h.633c.127 0 .236.023.327.069a.502.502 0 0 1 .283.465c0 .105-.024.196-.073.272s-.118.136-.21.177a.776.776 0 0 1-.327.062zm1.931.318v.261h-.865v-.261h.865zm-.756-1.364v1.625h-.335v-1.625h.335zm.643.662v.254h-.752v-.254h.752zm.112-.662v.262h-.864v-.262h.864zm.945 0v1.625h-.334v-1.625h.334zm.5 0v.262h-1.326v-.262h1.326zm1.282 1.364v.261h-.865v-.261h.865zm-.756-1.364v1.625h-.335v-1.625h.335zm.643.662v.254h-.752v-.254h.752zm.111-.662v.262h-.864v-.262h.864zm.197 0h.606c.124 0 .231.019.32.056s.159.092.208.165a.48.48 0 0 1 .073.269c0 .087-.015.162-.045.224s-.07.113-.124.155a.633.633 0 0 1-.186.098l-.106.056h-.527l-.002-.261h.392c.059 0 .108-.01.146-.031s.068-.05.087-.087c.02-.037.03-.08.03-.129 0-.052-.01-.097-.029-.135s-.049-.067-.088-.087a.325.325 0 0 0-.148-.03h-.271v1.363h-.335v-1.625zm.908 1.625-.371-.724.354-.002.375.711v.016h-.358zm1.402-.425c0-.029-.005-.055-.013-.078s-.024-.045-.047-.065c-.023-.02-.055-.04-.097-.059s-.096-.039-.162-.06c-.074-.024-.144-.051-.21-.08s-.123-.064-.174-.104c-.05-.04-.089-.087-.118-.14s-.042-.114-.042-.184c0-.068.015-.129.045-.184s.071-.103.125-.143c.054-.04.117-.071.19-.093s.154-.032.242-.032c.12 0 .224.022.314.065s.158.102.208.177c.05.075.075.161.075.258h-.333c0-.048-.01-.089-.03-.125s-.049-.065-.089-.086a.315.315 0 0 0-.15-.031c-.058 0-.106.009-.145.027s-.068.041-.087.07a.176.176 0 0 0-.029.098c0 .027.007.052.02.075s.035.043.063.062.061.038.102.055c.04.017.087.034.14.05.089.027.166.057.233.09s.124.071.17.113c.045.042.08.089.103.142s.035.113.035.18c0 .071-.014.134-.041.19s-.067.103-.119.142c-.052.039-.114.068-.186.088s-.153.03-.242.03c-.08 0-.16-.01-.238-.031s-.149-.054-.213-.097a.474.474 0 0 1-.209-.403h.336c0 .051.008.093.023.128s.038.063.066.085c.029.022.063.037.103.047s.084.015.132.015c.058 0 .106-.008.143-.025s.066-.039.084-.068a.175.175 0 0 0 .028-.098z" style="fill:var(--color1, #8e8f99)"/></symbol><symbol id="icon-Logo-2" viewBox="0 0 32 32"><path fill="#8e8f99" d="M11.326 22.53c.005 0 .01.001.014.003s.009.004.012.007l.068.064a.556.556 0 0 1-.191.121.752.752 0 0 1-.271.044.71.71 0 0 1-.255-.041.556.556 0 0 1-.192-.115.508.508 0 0 1-.124-.177.576.576 0 0 1-.043-.227.523.523 0 0 1 .179-.405.593.593 0 0 1 .204-.115.83.83 0 0 1 .506-.004c.067.025.129.06.183.102l-.057.068a.053.053 0 0 1-.014.012c-.007.004-.015.006-.023.005s-.017-.003-.025-.007l-.031-.018-.042-.023a.484.484 0 0 0-.235-.048.571.571 0 0 0-.189.03.407.407 0 0 0-.279.402.416.416 0 0 0 .129.319.379.379 0 0 0 .141.084c.055.02.115.029.175.029a.907.907 0 0 0 .104-.006.4.4 0 0 0 .224-.094.06.06 0 0 1 .032-.012zM13.288 22.209a.538.538 0 0 1-.046.226c-.028.065-.071.125-.128.175s-.125.089-.201.115a.842.842 0 0 1-.516 0 .619.619 0 0 1-.2-.115.501.501 0 0 1-.129-.177.581.581 0 0 1 0-.452.541.541 0 0 1 .129-.178.61.61 0 0 1 .2-.111.827.827 0 0 1 .516 0c.075.026.144.065.2.115s.1.11.128.175c.031.073.047.15.046.227zm-.178 0a.487.487 0 0 0-.032-.181.379.379 0 0 0-.235-.222.6.6 0 0 0-.375 0 .395.395 0 0 0-.144.086.365.365 0 0 0-.092.136.527.527 0 0 0 0 .363.369.369 0 0 0 .236.221.616.616 0 0 0 .375 0 .379.379 0 0 0 .235-.221.453.453 0 0 0 .032-.181zM14.627 22.4l.018.041.02-.041.022-.04.434-.674c.008-.012.016-.019.025-.021a.147.147 0 0 1 .036-.004h.128v1.096h-.152V21.879l-.437.684c-.006.01-.014.019-.026.025s-.024.009-.037.009h-.025c-.013 0-.026-.003-.037-.009s-.02-.015-.025-.025l-.449-.688V22.755h-.147v-1.094h.128a.11.11 0 0 1 .036.004.045.045 0 0 1 .024.021l.443.675a.216.216 0 0 1 .022.039zM16.26 22.345v.411h-.17v-1.095h.379a.823.823 0 0 1 .211.024.423.423 0 0 1 .149.068.28.28 0 0 1 .085.107c.02.045.03.092.029.14a.31.31 0 0 1-.031.14.31.31 0 0 1-.092.11.446.446 0 0 1-.15.073.703.703 0 0 1-.205.025l-.206-.003zm0-.117h.206a.488.488 0 0 0 .132-.017.291.291 0 0 0 .095-.047.194.194 0 0 0 .058-.073.199.199 0 0 0 .02-.092c.002-.03-.004-.061-.017-.089s-.033-.054-.059-.075a.374.374 0 0 0-.228-.059h-.206v.451zM18.543 22.757h-.134a.066.066 0 0 1-.037-.01.074.074 0 0 1-.022-.025l-.116-.265h-.58l-.12.265a.063.063 0 0 1-.021.025.07.07 0 0 1-.038.011h-.134l.51-1.097h.177l.516 1.097zm-.841-.407h.479l-.202-.446a.799.799 0 0 1-.038-.103l-.02.057a.54.54 0 0 1-.019.046l-.2.446zM19.277 21.666c.01.005.019.011.025.02l.743.827v-.851h.152v1.097h-.085a.08.08 0 0 1-.062-.027l-.742-.826v.853h-.152v-1.097h.09c.011 0 .021.002.031.005zM21.449 22.321v.435h-.17v-.435l-.47-.66h.152a.068.068 0 0 1 .037.009.092.092 0 0 1 .023.025l.294.426.031.051c.009.016.015.031.021.046l.022-.047a.36.36 0 0 1 .029-.05l.29-.429c.006-.009.014-.016.022-.023a.058.058 0 0 1 .037-.011h.154l-.471.663zM14.543 19.821c.074.008.149.015.224.02 1.146-.438 2.115-1.155 2.787-2.061s1.016-1.961.99-3.034l-1.263-1.079c.257 1.142.137 2.322-.347 3.409s-1.312 2.037-2.391 2.745z" style="fill:var(--color1, #8e8f99)"/><path fill="#8e8f99" d="m14.092 19.77.034.006c1.154-.705 2.034-1.69 2.525-2.827s.573-2.374.233-3.55l-1.799-1.537c.728 1.263 1.02 2.677.845 4.077s-.813 2.728-1.838 3.831zM20.192 16.013c-.306 1.178-1.048 2.241-2.117 3.03a6.77 6.77 0 0 1-1.006.617c.87-.219 1.67-.605 2.338-1.129s1.186-1.173 1.514-1.895l-.73-.623z" style="fill:var(--color1, #8e8f99)"/><path fill="#8e8f99" d="m19.906 15.839-1.039-.887c-.02 1.012-.357 2.001-.975 2.864s-1.496 1.569-2.542 2.044h.005c.233 0 .466-.012.697-.036.977-.341 1.841-.883 2.513-1.578s1.133-1.522 1.34-2.406zM14.242 11.214l-1.239-1.06c-1.108.366-2.061 1.009-2.734 1.845s-1.035 1.826-1.038 2.841c.004 1.121.446 2.209 1.255 3.092s1.94 1.509 3.213 1.781c1.137-1.183 1.802-2.645 1.9-4.173s-.378-3.043-1.357-4.325zM22.769 15.676c-.005-1.33-.625-2.605-1.726-3.546s-2.593-1.471-4.15-1.475a6.685 6.685 0 0 0-2.104.335l7.587 6.482c.26-.573.393-1.182.392-1.797z" style="fill:var(--color1, #8e8f99)"/></symbol><symbol id="icon-Logo-1" viewBox="0 0 32 32"><path fill="#8e8f99" d="M15.42 9.211h-.042c-.065-.004-.129-.005-.194-.007h-.14a7.717 7.717 0 0 0-.399.009 8.726 8.726 0 0 0-3.236.825l-.133.064v6.813l.311-.106c.273-.094.564-.178.866-.257a10.57 10.57 0 0 1 2.491-.331v.895c-.111.001-.22.004-.328.009h-.026a9.918 9.918 0 0 0-1.916.294 9.722 9.722 0 0 0-2.283.89V9.572a9.123 9.123 0 0 1 2.395-.974 9.198 9.198 0 0 1 2.257-.291h.132c.157.004.311.011.455.022a6.59 6.59 0 0 1 1.125.179v.881a6.911 6.911 0 0 0-1.09-.164l-.022-.002c-.076-.006-.152-.013-.223-.013zm1.55.9c.195.015.398.022.602.022a9.687 9.687 0 0 0 2.373-.304 9.802 9.802 0 0 0 2.282-.89v8.582a9.198 9.198 0 0 1-2.396.974 9.197 9.197 0 0 1-2.257.29 6.859 6.859 0 0 1-1.712-.202V9.946a7.141 7.141 0 0 0 1.108.166zm4.368.067-.311.105c-.286.096-.575.182-.866.259-.845.217-1.714.329-2.587.332-.203 0-.39-.005-.571-.017l-.248-.016v7.008l.213.019c.198.017.402.026.607.026a8.243 8.243 0 0 0 2.037-.264 8.518 8.518 0 0 0 1.592-.572l.133-.064v-6.815zM10.996 21.296a.464.464 0 0 0-.346-.14.508.508 0 0 0-.356.14.509.509 0 0 0-.136.35v1.167a.545.545 0 0 0 .046.239c.028.06.067.113.117.157a.409.409 0 0 0 .16.083.64.64 0 0 0 .174.024.508.508 0 0 0 .344-.149.5.5 0 0 0 .139-.343v-.131h-.305v.104a.262.262 0 0 1-.018.104.196.196 0 0 1-.044.066.197.197 0 0 1-.064.034.2.2 0 0 1-.064.011.157.157 0 0 1-.143-.063.27.27 0 0 1-.04-.157v-1.088a.374.374 0 0 1 .037-.174.156.156 0 0 1 .15-.071.161.161 0 0 1 .136.066c.034.045.052.1.051.157v.101h.302v-.119a.546.546 0 0 0-.139-.368zM12.809 21.283a.539.539 0 0 0-.529-.095.535.535 0 0 0-.161.095.46.46 0 0 0-.118.164.53.53 0 0 0-.044.226v1.12a.544.544 0 0 0 .044.229c.028.06.068.114.118.156a.487.487 0 0 0 .161.099.538.538 0 0 0 .364 0 .504.504 0 0 0 .28-.255.547.547 0 0 0 .044-.229v-1.12a.507.507 0 0 0-.159-.39zm-.143 1.509a.202.202 0 0 1-.061.162c-.04.034-.091.052-.144.052s-.103-.019-.144-.052a.204.204 0 0 1-.061-.162v-1.12a.202.202 0 0 1 .061-.162c.04-.034.091-.052.144-.052s.103.019.144.052c.021.021.038.046.049.074s.015.058.012.088v1.12zM15.19 23.292v-2.12h-.293l-.385 1.122h-.005l-.388-1.122h-.29v2.12h.303v-1.289h.005l.297.912h.151l.299-.912h.005v1.289h.303zM16.91 21.321a.427.427 0 0 0-.171-.116.683.683 0 0 0-.22-.033h-.45v2.12h.302v-.828h.156a.557.557 0 0 0 .272-.058.438.438 0 0 0 .166-.162.505.505 0 0 0 .069-.185c.012-.08.017-.16.016-.241a1.186 1.186 0 0 0-.03-.303.454.454 0 0 0-.111-.195zm-.155.646a.263.263 0 0 1-.028.11.165.165 0 0 1-.078.074.318.318 0 0 1-.142.027h-.138v-.721h.156a.288.288 0 0 1 .136.027.173.173 0 0 1 .071.078.282.282 0 0 1 .026.118v.141c0 .049.003.1 0 .146h-.003zM18.341 21.173h-.248l-.467 2.12h.302l.089-.455h.412l.089.455h.302l-.479-2.12zm-.279 1.375.149-.768h.005l.148.768h-.302zM20.292 22.449h-.005l-.456-1.277h-.29v2.12h.302v-1.275h.006l.462 1.275h.284v-2.12h-.302v1.277zM22.138 21.173l-.243.843h-.006l-.243-.843h-.32l.415 1.224v.896h.302v-.896l.415-1.224h-.32zM10.154 23.891h.146v.408h.099v-.408h.145v-.084h-.389v.084zM11.377 23.807l-.191.492h.105l.04-.112h.196l.042.112h.107l-.195-.492h-.105zm-.015.297.067-.182.067.182h-.134zM12.587 24.118h.114v.063a.183.183 0 0 1-.117.041.125.125 0 0 1-.104-.047.209.209 0 0 1-.037-.128c0-.11.047-.164.142-.164.025-.003.05.004.07.018s.035.036.041.06l.097-.019c-.021-.096-.09-.145-.209-.145a.248.248 0 0 0-.172.063c-.025.024-.044.054-.056.087s-.017.068-.015.103a.272.272 0 0 0 .063.185.24.24 0 0 0 .187.072.299.299 0 0 0 .209-.078v-.194h-.213v.083zM13.822 23.807h-.1v.492h.345v-.084h-.245v-.408zM14.867 23.807h-.1v.492h.1v-.492zM15.888 24.136l-.202-.329h-.097v.492h.093v-.322l.198.322h.099v-.492h-.091v.329zM16.811 24.082h.245v-.084h-.245v-.108h.264v-.084h-.363v.492h.374v-.084h-.274v-.133zM19.05 24.001h-.194v-.194h-.099v.492h.099v-.215h.194v.215h.099v-.492h-.099v.194zM19.979 24.082h.246v-.084h-.246v-.108h.265v-.084h-.363v.492h.373v-.084h-.274v-.133zM21.238 24.082c.086-.013.129-.059.129-.137a.116.116 0 0 0-.048-.109.287.287 0 0 0-.144-.029h-.209v.492h.099v-.206h.019a.128.128 0 0 1 .061.011.11.11 0 0 1 .035.036l.107.157h.118l-.06-.096a.342.342 0 0 0-.109-.118zm-.1-.068h-.073v-.124h.078a.242.242 0 0 1 .1.012c.007.006.013.014.017.023s.005.018.005.028c0 .01-.003.019-.008.027s-.011.016-.019.021a.283.283 0 0 1-.1.012zM22.188 24.082h.245v-.084h-.245v-.108h.265v-.084h-.364v.492h.374v-.084h-.274v-.133z" style="fill:var(--color1, #8e8f99)"/></symbol><symbol id="icon-Logo" viewBox="0 0 32 32"><path fill="#8e8f99" d="m11.692 9.538 2.156 2.054-4.002-.002v9.967h10.462v-3.811l2.154 2.052V9.538H11.693zm8.521 7.967-6.114-5.825h6.114v5.825zm-1.898 2.594h-6.813v-6.703h.482v6.249h6.332v.454zm-5.455 3.304-.254-.522h-.21l.368.691v.403h.19v-.403l.368-.691h-.209l-.254.522zm.936-.522h.045l.413 1.094h-.198l-.088-.256h-.423l-.088.256h-.198l.412-1.094h.126zm-.2.688h.32l-.16-.464-.16.464zm1.322-.181a.547.547 0 0 1-.089-.138.296.296 0 0 1 .012-.255.235.235 0 0 1 .1-.095.315.315 0 0 1 .151-.034c.056 0 .103.011.143.034s.072.051.093.088a.23.23 0 0 1 .033.12c0 .035-.006.066-.019.095s-.03.055-.052.078a.507.507 0 0 1-.077.067l-.076.055.217.256a.43.43 0 0 0 .047-.204h.156c0 .053-.005.103-.016.151a.473.473 0 0 1-.08.18l.16.189h-.21l-.064-.075a.407.407 0 0 1-.112.061.502.502 0 0 1-.359-.011.293.293 0 0 1-.166-.27c0-.045.009-.084.028-.117s.044-.066.076-.095c.03-.027.063-.054.101-.081zm.089.11-.023.016c-.027.022-.046.042-.059.062a.182.182 0 0 0-.011.185.146.146 0 0 0 .061.062.2.2 0 0 0 .098.023.272.272 0 0 0 .121-.028.398.398 0 0 0 .056-.034l-.243-.286zm.044-.2.067-.045c.032-.021.054-.042.068-.062s.02-.046.02-.077c0-.026-.01-.05-.03-.072s-.048-.033-.085-.033c-.026 0-.047.006-.065.018s-.031.027-.04.047a.147.147 0 0 0-.013.064c0 .023.006.046.017.07s.027.048.047.074l.013.016zm1.913.321h-.188c-.006.048-.017.088-.035.121s-.042.057-.076.074a.283.283 0 0 1-.13.026.212.212 0 0 1-.191-.1c-.02-.032-.035-.07-.045-.115s-.014-.095-.014-.15v-.092c0-.058.005-.11.016-.155s.027-.084.049-.115a.217.217 0 0 1 .193-.095c.053 0 .095.009.128.027s.057.043.074.077a.351.351 0 0 1 .033.121h.188c-.008-.073-.028-.138-.062-.195s-.08-.101-.14-.133-.134-.048-.221-.048c-.069 0-.13.012-.186.036s-.101.059-.14.104c-.039.045-.069.099-.09.163s-.031.135-.031.213v.091c0 .079.01.15.03.213s.05.118.089.163a.407.407 0 0 0 .322.14c.088 0 .163-.016.225-.048s.109-.076.143-.131a.434.434 0 0 0 .06-.192zm1.044-.161v-.06c0-.083-.011-.157-.033-.222s-.052-.121-.092-.168c-.04-.047-.088-.082-.143-.106s-.117-.037-.185-.037c-.067 0-.128.012-.184.037s-.103.059-.143.106c-.04.046-.071.102-.093.168s-.033.139-.033.222v.06c0 .083.011.157.033.222s.054.121.095.168a.41.41 0 0 0 .327.142.405.405 0 0 0 .328-.142c.04-.046.071-.102.092-.168s.032-.14.032-.222zm-.189-.061v.062c0 .061-.006.115-.018.162s-.029.087-.051.119c-.023.032-.05.056-.083.073s-.07.024-.112.024c-.042 0-.079-.008-.111-.024s-.061-.041-.084-.073c-.023-.033-.041-.072-.053-.119s-.018-.101-.018-.162v-.062c0-.061.006-.115.018-.162s.029-.086.052-.118a.227.227 0 0 1 .194-.097c.041 0 .079.008.112.025.033.016.061.04.083.072s.04.071.052.118c.012.047.018.1.018.162z" style="fill:var(--color1, #8e8f99)"/></symbol><symbol id="icon-linkedin-1-1" viewBox="0 0 32 32"><path fill="#f4f4fd" d="M31.992 32v-.001H32V20.263c0-5.741-1.236-10.164-7.948-10.164-3.227 0-5.392 1.771-6.276 3.449h-.093v-2.913h-6.364v21.364h6.627V21.42c0-2.785.528-5.479 3.977-5.479 3.399 0 3.449 3.179 3.449 5.657v10.401h6.62zM.528 10.636h6.635V32H.528V10.636zM3.843 0C1.722 0 0 1.721 0 3.843s1.721 3.879 3.843 3.879c2.121 0 3.843-1.757 3.843-3.879A3.846 3.846 0 0 0 3.843 0z" style="fill:var(--color2, #f4f4fd)"/></symbol><symbol id="icon-facebook-1-1" viewBox="0 0 32 32"><path fill="#f4f4fd" d="M21.329 5.313h2.921V.225C23.746.156 22.013 0 19.994 0c-4.212 0-7.097 2.649-7.097 7.519V12H8.249v5.688h4.648V32h5.699V17.689h4.46l.708-5.688h-5.169V8.082c.001-1.644.444-2.769 2.735-2.769z" style="fill:var(--color2, #f4f4fd)"/></symbol><symbol id="icon-twitter-1-1" viewBox="0 0 32 32"><path fill="#f4f4fd" d="M32 6.078c-1.19.522-2.458.868-3.78 1.036a6.523 6.523 0 0 0 2.886-3.626 13.11 13.11 0 0 1-4.16 1.588A6.574 6.574 0 0 0 22.154 3c-3.632 0-6.556 2.948-6.556 6.562 0 .52.044 1.02.152 1.496-5.454-.266-10.28-2.88-13.522-6.862a6.605 6.605 0 0 0-.898 3.316 6.57 6.57 0 0 0 2.914 5.452 6.479 6.479 0 0 1-2.964-.808v.072c0 3.188 2.274 5.836 5.256 6.446a6.548 6.548 0 0 1-1.72.216 5.8 5.8 0 0 1-1.242-.112c.85 2.598 3.262 4.508 6.13 4.57a13.182 13.182 0 0 1-8.134 2.798c-.538 0-1.054-.024-1.57-.09A18.469 18.469 0 0 0 10.064 29c12.072 0 18.672-10 18.672-18.668 0-.29-.01-.57-.024-.848A13.087 13.087 0 0 0 32 6.078z" style="fill:var(--color2, #f4f4fd)"/></symbol><symbol id="icon-instagram-2-1" viewBox="0 0 32 32"><path fill="#f4f4fd" d="M31.969 9.408c-.075-1.7-.35-2.869-.744-3.882a7.793 7.793 0 0 0-1.851-2.838A7.867 7.867 0 0 0 26.542.844C25.523.45 24.361.175 22.66.1 20.947.019 20.403 0 16.059 0s-4.888.019-6.595.094c-1.7.075-2.869.35-3.882.744a7.803 7.803 0 0 0-2.838 1.85A7.867 7.867 0 0 0 .9 5.52C.506 6.539.231 7.702.156 9.402c-.081 1.713-.1 2.257-.1 6.601s.019 4.888.094 6.595c.075 1.7.35 2.869.744 3.882a7.895 7.895 0 0 0 1.85 2.838 7.867 7.867 0 0 0 2.832 1.844c1.019.394 2.182.669 3.882.744 1.706.075 2.25.094 6.595.094s4.888-.019 6.595-.094c1.7-.075 2.869-.35 3.882-.744a8.181 8.181 0 0 0 4.682-4.682c.394-1.019.669-2.182.744-3.882.075-1.707.094-2.25.094-6.595s-.006-4.888-.081-6.595zm-2.882 13.065c-.069 1.563-.331 2.407-.55 2.969a5.31 5.31 0 0 1-3.038 3.038c-.563.219-1.413.481-2.969.55-1.688.075-2.194.094-6.464.094s-4.782-.019-6.464-.094c-1.563-.069-2.407-.331-2.969-.55a4.926 4.926 0 0 1-1.838-1.194 4.974 4.974 0 0 1-1.194-1.838c-.219-.563-.481-1.413-.55-2.969-.075-1.688-.094-2.194-.094-6.464s.019-4.782.094-6.464c.069-1.563.331-2.407.55-2.969a4.868 4.868 0 0 1 1.2-1.838A4.974 4.974 0 0 1 6.639 3.55c.563-.219 1.413-.481 2.969-.55 1.688-.075 2.194-.094 6.464-.094 4.276 0 4.782.019 6.464.094 1.563.069 2.407.331 2.969.55a4.914 4.914 0 0 1 1.838 1.194 4.974 4.974 0 0 1 1.194 1.838c.219.563.481 1.413.55 2.969.075 1.688.094 2.194.094 6.464s-.019 4.77-.094 6.458z" style="fill:var(--color2, #f4f4fd)"/><path fill="#f4f4fd" d="M16.059 7.783c-4.538 0-8.22 3.682-8.22 8.22s3.682 8.22 8.22 8.22c4.539 0 8.22-3.682 8.22-8.22s-3.682-8.22-8.22-8.22zm0 13.552a5.333 5.333 0 0 1 0-10.664 5.332 5.332 0 0 1 0 10.664zM26.524 7.458a1.919 1.919 0 1 1-3.838 0 1.919 1.919 0 0 1 3.838 0z" style="fill:var(--color2, #f4f4fd)"/></symbol><symbol id="icon-linkedin-1" viewBox="0 0 32 32"><path fill="#f4f4fd" d="M31.992 32v-.001H32V20.263c0-5.741-1.236-10.164-7.948-10.164-3.227 0-5.392 1.771-6.276 3.449h-.093v-2.913h-6.364v21.364h6.627V21.42c0-2.785.528-5.479 3.977-5.479 3.399 0 3.449 3.179 3.449 5.657v10.401h6.62zM.528 10.636h6.635V32H.528V10.636zM3.843 0C1.722 0 0 1.721 0 3.843s1.721 3.879 3.843 3.879c2.121 0 3.843-1.757 3.843-3.879A3.846 3.846 0 0 0 3.843 0z" style="fill:var(--color2, #f4f4fd)"/></symbol><symbol id="icon-facebook-1" viewBox="0 0 32 32"><path fill="#f4f4fd" d="M21.329 5.313h2.921V.225C23.746.156 22.013 0 19.994 0c-4.212 0-7.097 2.649-7.097 7.519V12H8.249v5.688h4.648V32h5.699V17.689h4.46l.708-5.688h-5.169V8.082c.001-1.644.444-2.769 2.735-2.769z" style="fill:var(--color2, #f4f4fd)"/></symbol><symbol id="icon-twitter-1" viewBox="0 0 32 32"><path fill="#f4f4fd" d="M32 6.078c-1.19.522-2.458.868-3.78 1.036a6.523 6.523 0 0 0 2.886-3.626 13.11 13.11 0 0 1-4.16 1.588A6.574 6.574 0 0 0 22.154 3c-3.632 0-6.556 2.948-6.556 6.562 0 .52.044 1.02.152 1.496-5.454-.266-10.28-2.88-13.522-6.862a6.605 6.605 0 0 0-.898 3.316 6.57 6.57 0 0 0 2.914 5.452 6.479 6.479 0 0 1-2.964-.808v.072c0 3.188 2.274 5.836 5.256 6.446a6.548 6.548 0 0 1-1.72.216 5.8 5.8 0 0 1-1.242-.112c.85 2.598 3.262 4.508 6.13 4.57a13.182 13.182 0 0 1-8.134 2.798c-.538 0-1.054-.024-1.57-.09A18.469 18.469 0 0 0 10.064 29c12.072 0 18.672-10 18.672-18.668 0-.29-.01-.57-.024-.848A13.087 13.087 0 0 0 32 6.078z" style="fill:var(--color2, #f4f4fd)"/></symbol><symbol id="icon-instagram-2" viewBox="0 0 32 32"><path fill="#f4f4fd" d="M31.969 9.408c-.075-1.7-.35-2.869-.744-3.882a7.803 7.803 0 0 0-1.85-2.838A7.867 7.867 0 0 0 26.543.844C25.524.45 24.361.175 22.661.1 20.948.019 20.404 0 16.06 0s-4.888.019-6.595.094c-1.7.075-2.869.35-3.882.744a7.803 7.803 0 0 0-2.838 1.85A7.867 7.867 0 0 0 .901 5.52C.507 6.539.232 7.702.157 9.402c-.081 1.713-.1 2.257-.1 6.601s.019 4.888.094 6.595c.075 1.7.35 2.869.744 3.882a7.895 7.895 0 0 0 1.85 2.838 7.867 7.867 0 0 0 2.832 1.844c1.019.394 2.182.669 3.882.744 1.706.075 2.25.094 6.595.094s4.888-.018 6.595-.094c1.7-.075 2.869-.35 3.882-.744a8.181 8.181 0 0 0 4.682-4.682c.394-1.019.669-2.182.744-3.882.075-1.707.094-2.251.094-6.595s-.006-4.888-.081-6.595zm-2.882 13.065c-.069 1.563-.331 2.407-.55 2.969a5.307 5.307 0 0 1-3.038 3.038c-.563.219-1.413.481-2.969.55-1.688.075-2.194.094-6.464.094s-4.782-.018-6.464-.094c-1.563-.069-2.407-.331-2.969-.55a4.926 4.926 0 0 1-1.838-1.194 4.974 4.974 0 0 1-1.194-1.838c-.219-.563-.481-1.413-.55-2.969-.075-1.688-.094-2.194-.094-6.464s.019-4.782.094-6.464c.069-1.563.331-2.407.55-2.969a4.868 4.868 0 0 1 1.2-1.838A4.974 4.974 0 0 1 6.639 3.55c.563-.219 1.413-.481 2.969-.55 1.688-.075 2.194-.094 6.464-.094 4.276 0 4.782.019 6.464.094 1.563.069 2.407.331 2.969.55a4.914 4.914 0 0 1 1.838 1.194 4.974 4.974 0 0 1 1.194 1.838c.219.563.481 1.413.55 2.969.075 1.688.094 2.194.094 6.464s-.019 4.77-.094 6.457z" style="fill:var(--color2, #f4f4fd)"/><path fill="#f4f4fd" d="M16.059 7.782c-4.538 0-8.22 3.682-8.22 8.22s3.682 8.22 8.22 8.22 8.22-3.682 8.22-8.22-3.682-8.22-8.22-8.22zm0 13.553a5.333 5.333 0 0 1 0-10.664 5.333 5.333 0 0 1 0 10.664zM26.524 7.457a1.919 1.919 0 1 1-3.838 0 1.919 1.919 0 0 1 3.838 0z" style="fill:var(--color2, #f4f4fd)"/></symbol><symbol id="icon-astronaut-1" viewBox="0 0 32 32"><path fill="#4d5ae5" d="M31.974 4.524a.534.534 0 0 0-.43-.363l-1.91-.278-.855-1.731c-.179-.365-.777-.365-.956 0l-.855 1.731-1.91.278a.535.535 0 0 0-.296.91l1.383 1.348-.326 1.903c-.034.2.048.402.212.522a.53.53 0 0 0 .562.04l1.709-.899 1.709.899a.536.536 0 0 0 .775-.563l-.326-1.903 1.383-1.348a.536.536 0 0 0 .135-.547zm-2.463 1.327a.534.534 0 0 0-.153.472l.191 1.114-1-.526a.533.533 0 0 0-.498 0l-1.001.526.191-1.114a.534.534 0 0 0-.153-.472l-.81-.789 1.119-.163a.532.532 0 0 0 .402-.292l.5-1.013.5 1.013a.535.535 0 0 0 .402.292l1.119.163-.809.789zM26.134 20.522h-1.067v1.067h1.067v-1.067zM26.134 22.656h-1.067v1.067h1.067v-1.067zM27.2 21.589h-1.067v1.067H27.2v-1.067zM25.067 21.589H24v1.067h1.067v-1.067zM22.4 26.389h-1.067v1.067H22.4v-1.067zM22.4 28.522h-1.067v1.067H22.4v-1.067zM23.467 27.456H22.4v1.067h1.067v-1.067zM21.333 27.456h-1.067v1.067h1.067v-1.067zM16 24.256h-1.067v1.067H16v-1.067zM16 26.389h-1.067v1.067H16v-1.067zM17.067 25.322H16v1.067h1.067v-1.067zM14.933 25.322h-1.067v1.067h1.067v-1.067zM5.867 6.122H4.8v1.067h1.067V6.122zM5.867 8.255H4.8v1.067h1.067V8.255z" style="fill:var(--color3, #4d5ae5)"/><path fill="#4d5ae5" d="M6.933 7.189H5.866v1.067h1.067V7.189zM4.8 7.189H3.733v1.067H4.8V7.189z" style="fill:var(--color3, #4d5ae5)"/><path fill="#2e2f42" d="M24.715 14.159a1.775 1.775 0 0 0-1.188-.705 1.778 1.778 0 0 0-1.34.352l-1.252.96-1.898 1.417-1.358-.541c2.421-1.086 4.114-3.508 4.114-6.32 0-3.823-3.123-6.933-6.961-6.933s-6.961 3.11-6.961 6.933a6.86 6.86 0 0 0 1.12 3.758l-2.764-.024h-.005c-.009 0-.015.004-.023.005a.515.515 0 0 0-.155.031l-.038.013c-.006.003-.013.003-.019.006l-3.233 1.596-.001.001-1.893.911a.397.397 0 0 0-.063.035 1.779 1.779 0 0 0-.598 2.295c.22.429.595.745 1.056.889a1.776 1.776 0 0 0 1.378-.128l1.388-.738 2.264-1.169 1.357-.008L2.2 22.211l-.002.001-1.339 1.333c-.316.315-.49.732-.49 1.178s.174.863.49 1.179c.325.323.752.485 1.179.485s.854-.162 1.18-.485l1.314-1.309 1.741-1.3.901.897-1.762 1.754-.002.001-1.339 1.333c-.316.315-.49.732-.49 1.178s.174.863.49 1.179c.325.323.753.485 1.18.485s.855-.162 1.18-.485l3.482-3.467.001-.002 1.01-1-.004-.004c.006-.006.015-.009.022-.015l5.166-5.658 3.471.494a.52.52 0 0 0 .262-.033c.018-.006.033-.015.05-.023.019-.01.039-.015.058-.027l3.213-2.133c.012-.008.018-.021.029-.029.013-.01.029-.014.041-.026l1.271-1.191c.662-.62.753-1.635.212-2.362zM2.13 17.77a.714.714 0 0 1-.558.052.717.717 0 0 1-.213-1.26l1.314-.632.449 1.313-.992.527zm3.498-1.828-1.548.8-.439-1.283 2.027-1.001-.04 1.484zm15.099-6.62a5.79 5.79 0 0 1-.599 2.559l-4.181-1.899a1.863 1.863 0 0 0-.788-1.388l1.464-4.86c2.378.756 4.105 2.974 4.105 5.588zm-11.789 0c0-3.235 2.644-5.867 5.894-5.867.253 0 .5.021.745.052l-1.432 4.754c-.019-.001-.037-.006-.057-.006-1.033 0-1.873.837-1.873 1.867s.84 1.867 1.873 1.867c.694 0 1.294-.383 1.618-.945l3.862 1.755a5.894 5.894 0 0 1-4.737 2.39c-3.25 0-5.894-2.632-5.894-5.867zm5.956.8c0 .441-.362.8-.806.8s-.806-.359-.806-.8c0-.441.362-.8.806-.8s.806.359.806.8zM2.465 25.146a.608.608 0 0 1-.854.001.592.592 0 0 1 0-.844l.962-.958.851.848-.959.955zm3.214 3.734a.608.608 0 0 1-.855.001.592.592 0 0 1 0-.844l.963-.959.852.848-.96.955zm3.481-3.469-.002.001-1.765 1.76-.852-.848 1.763-1.755.002-.001c.04-.04.065-.088.09-.135.007-.014.02-.026.026-.04.017-.041.019-.085.026-.129.003-.025.014-.047.014-.073 0-.036-.013-.07-.02-.106-.006-.032-.006-.065-.019-.095a.55.55 0 0 0-.091-.138c-.01-.012-.014-.027-.025-.038h-.001l-.001-.002-1.607-1.6c-.017-.017-.039-.024-.058-.038a.507.507 0 0 0-.087-.058.515.515 0 0 0-.093-.033.507.507 0 0 0-.103-.02.5.5 0 0 0-.095.005.53.53 0 0 0-.104.02.477.477 0 0 0-.094.045c-.02.011-.042.015-.061.029L4.23 23.486l-.901-.897 2.399-2.386 4.361 4.289-.928.919zm6.819-7.017c-.015-.002-.03.004-.045.003a.556.556 0 0 0-.3.075.492.492 0 0 0-.083.061c-.013.011-.028.017-.04.029l-4.698 5.146-4.328-4.257 2.833-2.818a.534.534 0 0 0-.379-.911v-.001l-2.219.013.028-1.607 3.104.027a6.947 6.947 0 0 0 4.981 2.101c.437 0 .864-.045 1.279-.123.04.032.079.065.13.085l2.41.96.152.758.178.885-3.003-.427zm4.041.178-.313-1.558 1.446-1.08.947 1.257-2.08 1.381zm3.754-2.831-.838.785-.931-1.236.831-.637a.735.735 0 0 1 .543-.143.718.718 0 0 1 .48.284.713.713 0 0 1-.085.947z" style="fill:var(--color4, #2e2f42)"/><path fill="#2e2f42" d="m13.602 18.544-2.143-2.133a.534.534 0 0 0-.753 0l-2.142 2.133a.537.537 0 0 0 0 .756l2.142 2.133a.536.536 0 0 0 .753 0l2.143-2.133a.535.535 0 0 0 0-.756zm-2.519 1.759-1.387-1.381 1.387-1.381 1.387 1.381-1.387 1.381zM17.164 5.071l-.258 1.036c.071.018 1.738.452 1.738 2.149h1.067c0-2.017-1.666-2.965-2.547-3.185zM19.711 9.322h-1.067v1.067h1.067V9.322z" style="fill:var(--color4, #2e2f42)"/></symbol><symbol id="icon-diagram-1" viewBox="0 0 32 32"><path fill="#4d5ae5" d="M14.926 14.965h1.066v4.798h-1.066v-4.797zM19.19 17.097h1.066v2.665H19.19v-2.665zM10.661 18.696h1.066v1.066h-1.066v-1.066zM7.463 18.163h1.066v1.599H7.463v-1.599z" style="fill:var(--color3, #4d5ae5)"/><path fill="#2e2f42" d="M1.599 28.291h25.587a1.6 1.6 0 0 0 1.599-1.599V24.56a1.6 1.6 0 0 0-1.599-1.599h-.533V9.668L29.681 6.8a1.608 1.608 0 1 0-.746-.763L26.654 8.2V6.97a1.6 1.6 0 0 0-1.599-1.599H3.733A1.6 1.6 0 0 0 2.134 6.97v15.992h-.533a1.6 1.6 0 0 0-1.599 1.599v2.132a1.6 1.6 0 0 0 1.599 1.599zM30.384 4.837a.533.533 0 1 1 0 1.067.533.533 0 0 1 0-1.067zM3.198 6.969c0-.294.239-.533.533-.533h21.322c.294 0 .533.239.533.533v2.239l-1.066 1.013V8.035a.533.533 0 0 0-.533-.533H4.797a.533.533 0 0 0-.533.533v13.326c0 .294.239.533.533.533h19.19a.533.533 0 0 0 .533-.533v-9.674l1.066-1.01v12.284H3.198V6.969zm4.798 6.93a1.598 1.598 0 1 0 1.107 2.749l1.853.93a.532.532 0 0 0 .636-.123l3.939-4.431 3.872 2.901a.533.533 0 0 0 .686-.039l3.365-3.188v8.131H5.33V8.569h18.124v2.66l-3.771 3.572-3.904-2.927a.533.533 0 0 0-.718.072l-3.993 4.493-1.493-.746c.011-.064.018-.129.02-.193a1.6 1.6 0 0 0-1.599-1.599zm.533 1.599a.533.533 0 1 1-1.067 0 .533.533 0 0 1 1.067 0zm3.198 8.529h5.331v.533a.533.533 0 0 1-.533.533h-4.264a.533.533 0 0 1-.533-.533v-.533zm-10.661.533c0-.294.239-.533.533-.533h9.062v.533a1.6 1.6 0 0 0 1.599 1.599h4.264a1.6 1.6 0 0 0 1.599-1.599v-.533h9.062c.294 0 .533.239.533.533v2.132a.533.533 0 0 1-.533.533H1.598a.533.533 0 0 1-.533-.533V24.56z" style="fill:var(--color4, #2e2f42)"/></symbol><symbol id="icon-clock-1" viewBox="0 0 32 32"><path fill="#2e2f42" d="M31.297 15.301C31.295 6.849 24.442-.002 15.989 0S.686 6.855.688 15.308a15.304 15.304 0 0 0 10.649 14.576.662.662 0 0 0 .529-.065.637.637 0 0 0 .283-.356l3.865-12.25a1.912 1.912 0 1 0-.84-3.635l-5.106-5.107a.637.637 0 0 0-.902.902l5.103 5.109a1.876 1.876 0 0 0 .536 2.309l-3.683 11.673C3.844 25.783.118 17.71 2.799 10.432S13.553-.572 20.831 2.109c7.278 2.681 11.004 10.754 8.323 18.032a14.042 14.042 0 0 1-7.462 7.973l-.398-1.874a.637.637 0 0 0-1.049-.344l-3.837 3.426a.637.637 0 0 0 .231 1.084l4.899 1.564a.638.638 0 0 0 .819-.74l-.391-1.839a15.255 15.255 0 0 0 9.329-14.089zm-15.305-.637a.638.638 0 1 1 0 1.277.638.638 0 0 1 0-1.277zm2.101 14.864 2.184-1.948.603 2.84-2.787-.892z" style="fill:var(--color4, #2e2f42)"/><path fill="#4d5ae5" d="M15.354 3.185V4.46a.638.638 0 1 0 1.276 0V3.185a.638.638 0 0 0-1.276 0zM3.876 14.664a.638.638 0 0 0 0 1.276h1.275a.638.638 0 1 0 0-1.276H3.876zM28.108 15.939a.638.638 0 1 0 0-1.276h-1.275a.638.638 0 0 0 0 1.276h1.275z" style="fill:var(--color3, #4d5ae5)"/></symbol><symbol id="icon-antenna-1" viewBox="0 0 32 32"><path fill="#2e2f42" d="m30.773 22.098-8.443-8.505.937-4.615c.242.094.499.144.758.146h.006a2.159 2.159 0 1 0-2.008-1.435l-4.96.605L8.972.161a.534.534 0 0 0-.377-.16.532.532 0 0 0-.373.155L6.709 1.66a.534.534 0 0 0 0 .754l.814.826a14.943 14.943 0 0 0 2.519 17.663.513.513 0 0 0 .146.098c-.034.18-.051.364-.052.547v6.187h-6.4a2.67 2.67 0 0 0-2.667 2.667v1.067c0 .295.239.533.533.533h24.533a.533.533 0 0 0 .533-.533v-1.067a2.67 2.67 0 0 0-2.667-2.667h-6.4v-2.742a15.09 15.09 0 0 0 3.049.32 14.854 14.854 0 0 0 7.04-1.783l.818.823a.534.534 0 0 0 .377.16.532.532 0 0 0 .373-.155l1.513-1.504a.534.534 0 0 0 0-.754zM23.28 6.233a1.067 1.067 0 1 1 .753 1.822h-.003a1.067 1.067 0 0 1-.747-1.823h-.002zm-1.256 3.505-.598 2.946-1.175-1.182 1.774-1.763zm-.605-.902-1.92 1.909-1.485-1.493 3.405-.415zM24.004 28.8a1.6 1.6 0 0 1 1.6 1.6v.533H2.137V30.4a1.6 1.6 0 0 1 1.6-1.6h20.267zm-7.467-2.133v1.067h-5.333v-1.067h5.333zM11.204 25.6v-4.053c0-1.294 1.196-2.347 2.667-2.347s2.667 1.053 2.667 2.347V25.6h-5.333zm6.4-1.696v-2.357c0-1.882-1.675-3.413-3.733-3.413a3.8 3.8 0 0 0-3.281 1.786A13.87 13.87 0 0 1 8.311 4.033l18.602 18.708a13.818 13.818 0 0 1-9.309 1.163zm11.289-.684L7.836 2.039l.755-.752 7.935 7.98c.004 0 .006.007.01.01l13.115 13.191-.757.752z" style="fill:var(--color4, #2e2f42)"/><path fill="#4d5ae5" d="M13.876 20.267h-.005a1.6 1.6 0 1 0-.004 3.2h.005a1.6 1.6 0 1 0 .004-3.2zm.373 1.978a.534.534 0 0 1-.752-.756.534.534 0 0 1 .373-.155.534.534 0 0 1 .374.911h.005z" style="fill:var(--color3, #4d5ae5)"/></symbol></defs></svg>